{"title":"Poulet.Aux.Prunes.2011.BRRip.AC3.HORiZON-ArtSubs","uid":7110718,"size":1574316032,"categoryP":"video","categoryS":"movies","magnet":"?xt=urn:btih:37df702f366420757a3ee732646e2bee594598cf&amp;dn=Poulet.Aux.Prunes.2011.BRRip.AC3.HORiZON-ArtSubs&amp;tr=udp%3A%2F%2Ftracker.openbittorrent.com%3A80&amp;tr=udp%3A%2F%2Fopen.demonii.com%3A1337&amp;tr=udp%3A%2F%2Ftracker.coppersurfer.tk%3A6969&amp;tr=udp%3A%2F%2Fexodus.desync.com%3A6969","seeders":10,"leechers":0,"uploader":"lletaif","files":1,"time":1332026616,"description":"Title: Poulet aux Prunes\n\nCountry: France/2011\n\nDirectors: Vincent Paronnaud, Marjane Satrapi\n\nWriters: Vincent Paronnaud (screenplay), Marjane Satrapi (screenplay)\n\nStars: Mathieu Amalric, Edouard Baer and Maria de Medeiros\n\nLanguage: French\n\nPlot: Nasser-Ali, a talented musician, loses the will to live after his wife breaks his beloved violin during an argument. He searches for a replacement, and finding none that sounds quite the same, he vows to die. Eight days later, he does. This is the story of his last week of life, where we see flashbacks and flash forwards of his previous life and his children's futures. We also see appearances of a nude Sophia Loren as well as the angel of death, Azarel. As we see his life, we realize exactly why he chose to end it and the profundity of this choice.\n\nImdb: http://www.imdb.com/title/tt1663321/\n\nRip Specs:\n\n\nGeneral\nComplete name                : Poulet.Aux.Prunes.2011.BRRip.AC3.HORiZON-ArtSubs.avi\nFormat                           : AVI\nFormat/Info                      : Audio Video Interleave\nFile size                        : 1.47 GiB\nDuration                         : 1h 31mn\nOverall bit rate                 : 2 289 Kbps\nWriting application              : FairUse Wizard - http://fairusewizard.com\nWriting library                  : The best and REALLY easy backup tool\n\nVideo\nID                               : 0\nFormat                           : MPEG-4 Visual\nFormat profile                   : Advanced Simple@L5\nFormat settings, BVOP            : 1\nFormat settings, QPel            : No\nFormat settings, GMC             : No warppoints\nFormat settings, Matrix          : Default (H.263)\nMuxing mode                      : Packed bitstream\nCodec ID                         : XVID\nCodec ID/Hint                    : XviD\nDuration                         : 1h 31mn\nBit rate                         : 1 832 Kbps\nWidth                            : 704 pixels\nHeight                           : 336 pixels\nDisplay aspect ratio             : 2.095\nFrame rate                       : 23.976 fps\nColor space                      : YUV\nChroma subsampling               : 4:2:0\nBit depth                        : 8 bits\nScan type                        : Progressive\nCompression mode                 : Lossy\nBits/(Pixel*Frame)               : 0.323\nStream size                      : 1.17 GiB (80%)\nWriting library                  : XviD 1.1.0 (UTC 2005-11-22)\n\nAudio\nID                               : 1\nFormat                           : AC-3\nFormat/Info                      : Audio Coding 3\nMode extension                   : CM (complete main)\nCodec ID                         : 2000\nDuration                         : 1h 31mn\nBit rate mode                    : Constant\nBit rate                         : 448 Kbps\nChannel(s)                       : 6 channels\nChannel positions                : Front: L C R, Side: L R, LFE\nSampling rate                    : 48.0 KHz\nBit depth                        : 16 bits\nCompression mode                 : Lossy\nStream size                      : 294 MiB (20%)\nAlignment                        : Split accross interleaves\nInterleave, duration             : 42 ms (1.00 video frame)\nInterleave, preload duration     : 500 ms\n","torrent":{"xt":"urn:btih:37df702f366420757a3ee732646e2bee594598cf","amp;dn":"Poulet.Aux.Prunes.2011.BRRip.AC3.HORiZON-ArtSubs","amp;tr":["udp%3A%2F%2Ftracker.openbittorrent.com%3A80","udp%3A%2F%2Fopen.demonii.com%3A1337","udp%3A%2F%2Ftracker.coppersurfer.tk%3A6969","udp%3A%2F%2Fexodus.desync.com%3A6969"],"infoHash":"37df702f366420757a3ee732646e2bee594598cf","infoHashBuffer":{"type":"Buffer","data":[55,223,112,47,54,100,32,117,122,62,231,50,100,110,43,238,89,69,152,207]},"announce":[],"urlList":[]}}